<svg width="592" height="493" viewBox="0 0 592 493" fill="none" xmlns="http://www.w3.org/2000/svg">
<path fill-rule="evenodd" clip-rule="evenodd" d="M170 425.579C64.5994 382.967 65.249 436.459 18.2706 357.579C-28.7078 278.698 14.7165 162.481 152.576 126.579C290.435 90.6767 482 -78.7379 584.265 202.978C613.002 282.143 557.625 493.001 358.669 492.581C216.245 492.276 241.235 453.579 170 425.579Z" fill="#20BF6B"/>
<path fill-rule="evenodd" clip-rule="evenodd" d="M343.759 262.578C343.262 262.187 343.39 260.99 343.538 260.185C344.475 255.073 348.994 251.65 352.98 248.456C356.965 245.263 361.089 240.973 360.675 235.788C360.116 228.783 363.344 222.14 365.315 215.411C367.286 208.681 367.635 200.391 362.612 195.636C360.872 193.988 358.653 192.954 356.9 191.321C355.146 189.687 353.886 187.036 354.883 184.828C354.034 185.337 353.184 185.846 352.335 186.355C352.098 182.939 348.217 181.419 345.298 179.783C340.29 176.977 336.628 171.307 337.03 165.448C337.432 159.589 342.542 154.193 348.233 154.524C350.677 154.665 353.815 155.439 355.029 153.249C359.513 145.159 371.143 144.228 376.424 136.666C377.575 135.019 383.127 130.099 382.579 133.578C381.361 141.314 388.137 139.069 390.809 142.307C402.459 156.421 403.357 177.809 401.255 198.078C396.759 241.451 369.951 283.184 343.759 262.578Z" fill="white"/>
<path fill-rule="evenodd" clip-rule="evenodd" d="M375.382 146.221C378.095 143.303 382.049 141.578 386.033 141.578C392.617 144.991 399.129 149.608 405.569 155.429C409.607 153.831 412.453 153.506 414.106 154.455C416.585 155.878 418.104 158.578 418.823 161.345C421.128 170.219 416.225 179.4 410.193 186.303C407.562 189.313 404.63 192.189 403.019 195.849C401.408 199.508 401.48 204.281 404.412 206.999C411.743 213.793 414.189 224.512 413.78 234.5C413.371 244.488 410.523 254.196 408.929 264.065C407.159 275.017 406.938 286.219 408.274 297.233C408.687 300.634 409.281 304.115 411.057 307.045C412.833 309.975 416.048 312.264 419.464 312.012C418.254 313.743 415.338 313.863 413.989 312.237C415.317 313.618 416.645 314.998 417.973 316.379C416.366 316.042 414.76 315.705 413.154 315.369C426.582 323.003 440.487 329.797 454.762 335.696C453.928 332.891 450.987 331.365 448.326 330.148C440.895 326.75 433.464 323.351 426.033 319.953C437.196 320.965 447.976 325.814 456.141 333.496C465.977 342.75 481.897 342.232 492.563 350.515C494.85 352.292 496.908 354.559 497.676 357.351C498.754 361.275 497.028 365.566 494.186 368.477C491.344 371.389 487.54 373.147 483.735 374.589C472.368 378.895 460.145 380.927 447.997 380.529C446.966 378.717 447.996 376.304 449.674 375.066C451.351 373.829 453.488 373.45 455.525 373.012C464.194 371.147 472.495 367.586 479.819 362.588C481.465 361.465 483.251 359.449 482.195 357.76C481.803 357.132 481.106 356.775 480.438 356.456C468.936 350.965 456.086 348.325 443.351 348.836C447.11 348.157 450.87 347.477 454.629 346.798C444.693 340.87 434.248 335.797 423.446 331.653C420.088 330.364 416 329.256 413.145 331.445C406.178 336.788 399.21 342.131 392.243 347.474C401.227 347.632 410.168 349.842 418.192 353.887C416.356 357.9 412.23 360.763 407.829 361.077C409.911 358.941 411.994 356.806 414.076 354.67C399.245 345.476 378.093 355.085 363.241 345.925C356.616 341.839 352.225 334.476 345.043 331.476C338.193 328.614 330.389 330.359 323.181 332.141C318.454 333.31 313.488 334.608 310 338.006C310.097 334.587 313.346 332.113 316.541 330.895C319.736 329.677 323.283 329.114 325.972 327.002C328.701 324.859 330.095 321.473 332.246 318.752C334.398 316.031 338.211 313.885 341.251 315.556C340.314 308.33 346.453 302.437 350.614 296.457C355.354 289.646 357.887 281.324 357.746 273.027C352.466 275.833 350.091 283.069 352.682 288.46C353.832 290.854 351.541 293.875 348.892 294.064C346.243 294.252 343.812 292.303 342.615 289.932C341.417 287.561 341.199 284.832 341.02 282.182C340.767 278.437 340.557 274.614 341.521 270.987C343.348 264.114 349.08 259.003 355.028 255.108C360.976 251.213 367.507 248.027 372.494 242.958C377.995 237.367 381.254 229.629 381.413 221.786C383.707 232.237 378.535 145.508 375.382 146.221ZM351.189 290.026C351.245 287.865 350.574 285.691 349.31 283.938C348.869 286.109 349.602 288.481 351.189 290.026Z" fill="white"/>
<path fill-rule="evenodd" clip-rule="evenodd" d="M276.72 286.617C272.387 289.661 267.902 292.871 265.381 297.519C262.859 302.167 262.976 308.694 267.09 312.028C277.158 320.186 273.938 336.43 279.948 347.891C283.246 354.181 289.594 360.139 287.813 367.01C286.418 372.394 280.627 375.206 275.467 377.326C273.045 378.321 270.482 379.337 267.884 378.999C265.285 378.66 262.739 376.427 263.059 373.836C263.633 369.2 271.777 368.361 271.922 363.693C271.963 362.382 271.291 361.166 270.639 360.027C266.231 352.325 261.823 344.623 257.415 336.921C252.259 347.685 250.189 359.897 251.51 371.751C251.925 375.471 249.141 378.956 245.757 380.581C242.373 382.207 238.496 382.38 234.742 382.524C231.666 382.641 228.393 382.712 225.752 381.137C223.111 379.562 221.631 375.679 223.619 373.338C225.407 371.231 228.687 371.514 231.297 370.589C238.227 368.132 238.524 358.609 237.538 351.346C235.635 337.314 233.731 323.282 231.827 309.25C230.863 302.144 229.786 294.738 225.671 288.855C211.52 268.621 230.035 237.764 216.655 217.016C212.547 210.646 208.416 204.035 207.04 196.589C205.664 189.143 207.659 180.581 213.833 176.166C218.466 172.854 219.023 166.36 219.657 160.713C220.818 150.371 223.655 140.217 228.025 130.765C218.059 123.522 205.979 119.204 193.665 118.483C194.046 120.725 194.859 122.895 196.045 124.838C188.957 122.184 183.495 115.615 182.197 108.183C181.062 110.809 179.928 113.436 178.793 116.063C169.035 96.18 176.058 72.5599 183.202 51.6032C185.282 45.5012 187.362 39.3991 189.442 33.2971C191.944 25.9552 195.523 17.5734 203.064 15.6581C207.705 14.4794 213.961 18.9356 211.512 23.0368C205.426 21.5124 208.726 27.6373 211.019 25.0456C216.22 19.1671 220.461 12.1816 226.686 7.36207C238.555 -1.82644 256.214 -1.24121 269.099 6.47007C281.983 14.1814 290.425 27.8573 294.604 42.2424C295.209 44.3244 295.721 46.6246 294.825 48.5996C293.929 50.5746 290.996 51.6795 289.514 50.0928C287.45 47.8823 284.583 52.0611 284.718 55.0776C285.413 70.5379 295.277 83.9397 299.866 98.7247C304.341 113.144 303.704 128.578 303.025 143.656C302.079 164.624 299.465 222.636 298.616 230.634C297.016 245.703 293.689 260.655 293.892 275.806C294.154 295.275 300.224 314.158 306.624 332.555C309.287 340.21 312.127 348.034 317.426 354.18C322.724 360.327 331.085 364.52 339 362.662C333.385 368.275 323.795 368.078 316.825 364.26C309.854 360.443 304.947 353.812 300.489 347.25C297.644 343.062 289.909 351.394 286.55 347.604C290.683 346.74 294.591 344.83 297.807 342.105C290.778 323.609 283.749 305.113 276.72 286.617ZM240.623 66.615C239.903 65.8874 238.781 65.166 237.943 65.7551C238.866 66.6857 238.592 68.483 237.434 69.0989C236.055 68.5962 236.546 66.56 236.16 65.1493C235.664 63.3343 233.56 62.5455 231.722 62.1168C222.286 59.9165 211.313 59.5414 205.043 52.1792C204.46 51.494 203.909 50.7405 203.118 50.3091C201.501 49.4274 199.368 50.2442 198.22 51.6812C197.072 53.1183 196.686 55.0035 196.418 56.8208C195.062 66.0236 195.851 75.5337 198.706 84.3896C199.221 85.9879 199.831 87.6121 200.979 88.8406C204.118 92.1992 209.546 91.2558 214.086 90.4851C218.311 89.7679 222.602 89.434 226.887 89.4889C228.874 89.5143 230.831 89.0625 232.766 88.6133C237.878 87.4263 242.991 86.2393 248.104 85.0522C248.168 78.2493 245.414 71.4623 240.623 66.615Z" fill="white"/>
<path fill-rule="evenodd" clip-rule="evenodd" d="M428.796 465.633L440.962 467.433C443.188 467.762 445.647 468.222 447 469.99C446.377 470.534 445.431 470.449 444.606 470.33C439.899 469.656 435.192 468.981 430.485 468.307L436.085 474.741C437.05 475.849 438.089 477.007 439.504 477.448C440.744 477.834 442.522 477.956 442.67 479.225C440.965 479.94 438.939 479.499 437.367 478.533C435.795 477.567 434.585 476.139 433.403 474.735C431.503 472.48 429.604 470.224 427.704 467.968C427.207 467.378 426.704 466.504 427.211 465.923C427.577 465.504 428.239 465.551 428.796 465.633ZM493.947 415.578C494.322 417.2 492.644 418.455 491.263 419.331C480.193 426.355 474.718 439.618 469.906 452.042C469.534 453.003 469.437 454.511 470.432 454.666C472.36 451.036 476.143 448.519 480.155 448.196C477.11 450.319 475.891 454.356 475.7 458.133C475.509 461.91 476.128 465.706 475.782 469.471C473.889 469.287 473.401 466.704 473.424 464.75C473.47 460.883 473.515 457.015 473.561 453.148C466.568 457.455 464.888 466.927 463.902 475.244C463.513 475.835 462.526 475.58 462.183 474.96C461.84 474.339 461.943 473.57 462.061 472.867C464.923 455.939 471.432 439.672 480.986 425.572C471.756 430.519 463.877 438.097 458.464 447.237C457.078 444.653 459.054 441.569 461.011 439.41C470.23 429.241 481.524 421.069 493.947 415.578ZM408.082 406.578C412.957 409.967 417.832 413.356 422.707 416.745C430.438 422.12 438.248 427.563 444.515 434.588C444.084 428.169 445.696 421.629 449.062 416.146C449.46 415.497 450.159 414.771 450.853 415.086C451.343 415.308 451.484 415.925 451.564 416.457C452.945 425.67 454.326 434.883 455.707 444.096C451.738 436.718 449.795 428.264 450.142 419.895C447.726 423.778 445.746 428.259 446.357 432.79C447.848 443.846 463.384 449.211 464 460.351C450.458 443.668 436.368 426.611 417.483 416.348C426.276 428.833 436.315 440.442 447.402 450.946C450.531 453.91 454.006 457.392 453.783 461.694C446.408 453.028 433.818 449.188 422.857 452.261C429.155 454.6 435.292 457.369 441.212 460.544C444.686 462.406 448.381 464.777 449.418 468.578C439.423 461.1 427.832 455.762 415.649 453.027C424.872 447.655 436.9 447.457 446.294 452.525C432.103 439.735 420.484 424.403 408.957 409.171C408.383 408.412 407.776 407.479 408.082 406.578ZM349.051 355.586C371.841 359.955 394.243 366.342 415.908 374.648C418.476 375.632 421.113 376.695 423.048 378.646C425.358 380.976 426.367 384.258 427.297 387.402C431.198 400.597 435.099 413.793 439 426.988C431.984 413.213 426.968 398.424 424.157 383.227C406.883 390.115 387.632 389.141 369.039 388.599C340.392 387.763 311.707 388.203 283.098 389.918C285.009 390.346 286.92 390.774 288.831 391.201C284.468 392.662 279.754 392.542 275.155 392.38C240.446 391.154 205.791 388.386 171.327 384.088C163.98 383.172 156.257 382.031 150.421 377.481L134.633 424.335C133.732 427.009 130.749 430.245 128.819 428.184C126.554 425.766 122.637 428.285 120.399 430.728C111.894 440.012 103.389 449.295 94.884 458.578C99.8672 449.957 106.166 442.095 113.496 435.348C105.386 435.202 97.2868 438.827 92 444.968C94.0303 432.686 106.678 423.165 119.062 424.595C110.803 425.734 103.026 430.057 97.7066 436.467C106.683 435.3 115.332 431.706 122.486 426.168C125.064 424.173 129.086 424.356 131.47 426.578C136.445 411.709 141.419 396.841 146.393 381.973C147.114 379.819 147.716 377.121 146.079 375.545C174.073 366.278 203.485 361.299 232.973 360.834C209.534 364.473 186.095 368.113 162.655 371.752C159.051 372.311 154.706 373.515 153.856 377.057C157.9 378.083 161.943 379.108 166.01 380.037C228.243 394.253 293.094 385.474 356.931 386.243C378.997 386.508 401.624 387.849 422.586 380.962C390.897 366.278 356.522 357.394 321.677 354.883C330.56 352.449 340.004 353.852 349.051 355.586ZM85.6855 369.305C95.7392 371.706 104.778 377.087 113.638 382.393C120.184 386.313 127.478 391.407 128.115 398.923L128.132 399.186L127.949 398.978C120.925 391.075 112.62 384.302 103.452 379.008C109.752 386.118 116.053 393.228 122.353 400.337C123.982 402.176 125.676 404.485 126.115 406.774C126.202 406.668 126.338 406.598 126.493 406.611L126.445 406.578C126.906 406.7 127.146 407.218 126.905 407.57C126.657 407.6 126.385 407.543 126.201 407.408C126.287 408.374 126.123 409.331 125.61 410.237C123.413 406.671 120.65 403.451 117.454 400.735C119.982 406.189 122.509 411.644 125.037 417.098C122.466 416.247 120.202 414.504 118.728 412.24C118.391 414.119 119.224 416.158 120.783 417.268C118.209 418.56 115.298 419.178 112.42 419.044C113.579 419.884 114.739 420.724 115.899 421.564L91.8806 422.578C92.6197 421.285 93.6438 420.155 94.8595 419.291C76.1359 417.284 62.4506 401.617 70.84 407.277C84.5687 416.538 102.165 419.906 118.362 416.373C109.396 413.762 100.971 409.325 93.7581 403.414C98.8719 402.157 104.538 403.391 108.67 406.64L108.968 406.88L97.8021 391.347C94.0795 386.169 90.357 380.99 86.6344 375.812C97.6949 387.308 108.755 398.804 119.816 410.3C113.967 393.107 101.567 378.213 85.6855 369.305ZM110.568 419.189L110.455 419.317C110.09 419.049 109.725 419.804 110.05 420.119C110.453 420.247 110.923 420.139 111.229 419.848C111.009 419.628 110.789 419.408 110.568 419.189ZM513.369 367.611C521.847 369.453 530.325 371.295 538.803 373.137C541.403 373.701 544.691 375.216 544.255 377.875C544.078 378.959 543.269 379.812 542.472 380.557C539.58 383.262 536.31 385.551 532.791 387.332L541.633 389.548C543.978 390.136 546.444 390.791 548.163 392.511C549.882 394.231 550.447 397.389 548.684 399.063C551.209 403.442 553.561 407.923 555.733 412.492C556.812 414.761 557.765 417.715 556.093 419.578C553.217 413.049 550.34 406.52 547.464 399.992C543.686 402.309 539.064 403.174 534.719 402.377C535.932 400.709 538.173 400.266 540.205 400.042C542.237 399.819 544.45 399.615 545.938 398.195C547.426 396.774 547.346 393.66 545.373 393.12C539.838 391.605 534.304 390.091 528.769 388.576C532.9 384.773 537.313 381.286 541.96 378.154C542.2 376.924 540.714 376.151 539.519 375.828C526.538 372.32 513.326 369.689 500 367.958C503.997 365.733 508.91 366.643 513.369 367.611ZM84.1516 403.589C84.7192 403.681 85.169 404.131 85.5927 404.547C89.1714 408.058 93.6258 410.53 98.3631 411.634C100.731 412.186 103.378 412.52 105 414.454C96.979 415.303 88.6605 411.759 83.3651 405.234C83.2103 405.043 83.0523 404.838 83.0103 404.589C82.9081 403.983 83.5841 403.498 84.1516 403.589ZM100.519 405.861C104.585 409.073 109.349 411.403 114.387 412.644C110.369 409.363 105.582 407.021 100.519 405.861ZM109.753 403.463C111.257 407.289 114.426 410.432 118.274 411.913C115.942 408.642 113.047 405.771 109.753 403.463ZM187.372 189.323C181.738 192.066 176.579 195.774 172.19 200.235C162.321 210.268 149.589 217.476 135.884 220.786L170.58 201.151C170.029 197.339 164.291 197.906 160.841 199.645C154.859 202.66 149.034 206.021 143.675 210.033C140.495 212.414 137.485 215.021 134.676 217.826C123.687 228.801 115.954 242.636 110.124 257.007C101.746 277.658 97.0282 300.089 99.038 322.272C101.048 344.455 110.167 366.364 126.367 381.718C126.935 379.971 127.502 378.223 128.07 376.476C130.566 377.716 133.524 378.006 136.214 377.274C132.987 375.403 129.592 373.361 127.885 370.053C126.178 366.746 127.083 361.826 130.605 360.59C127.171 357.521 124.812 353.282 124.018 348.756C127.892 348.044 131.766 347.332 135.64 346.62C131.841 337.935 132.601 327.414 137.609 319.359C138.394 318.096 139.661 316.737 141.107 317.1C143.417 317.68 144.093 322.148 146.297 321.249L154.91 309.067L163.249 297.271L163.112 297.474C159.818 302.462 159.688 309.379 162.863 314.457C167.289 309.789 173.308 306.647 179.68 305.68C180.203 308.575 180.726 311.471 181.249 314.367C183.595 312.424 186.118 310.402 189.144 310.012C192.17 309.622 195.716 311.654 195.73 314.693C195.742 317.195 193.545 319.975 195.152 321.898C197.472 320.404 199.967 318.857 202.729 318.866C205.491 318.875 208.421 321.19 207.969 323.905C207.28 328.046 206.591 332.187 205.901 336.328C210.585 334.801 216.97 333.883 219.326 338.194C221.02 341.296 219.256 345.17 216.961 347.862C214.666 350.553 211.737 352.918 210.64 356.276C209.118 353.149 211.982 349.787 214.393 347.276C216.805 344.766 218.971 340.576 216.462 338.161C213.115 334.939 207.352 340.17 203.063 338.369C203.998 332.796 204.933 327.224 205.868 321.652C201.015 321.634 196.164 323.046 192.084 325.664C191.702 321.261 191.97 316.804 192.877 312.478C188.133 313.472 183.468 314.844 178.942 316.574C177.89 313.781 177.453 310.76 177.668 307.785L161.887 316.979C161.475 315.421 160.403 314.048 158.989 313.266C160.424 321.556 161.859 329.846 163.293 338.136C158.808 329.956 156.717 320.491 157.341 311.191C152.431 314.328 148.896 319.527 147.792 325.233C144.669 324.52 141.913 322.354 140.491 319.495C134.749 327.544 133.997 338.843 138.623 347.577C134.876 349.207 130.902 350.32 126.85 350.872L134.052 362.257C132.171 362.502 130.379 363.376 129.032 364.706C130.397 370.87 135.516 376.05 141.683 377.507C138.795 379.311 135.345 380.211 131.939 380.049C136.172 381.272 140.158 383.336 143.594 386.086C138.714 385.31 133.989 383.579 129.767 381.022C131.881 385.482 135.732 389.097 140.328 390.936C137.586 391.045 134.817 390.399 132.409 389.089C135.033 392.564 136.359 396.989 136.075 401.328C134.218 397.688 132.36 394.048 130.502 390.408C130.298 394.015 130.095 397.623 129.891 401.23C129.467 400.723 129.038 400.22 128.604 399.722L128.17 399.229L128.271 398.99C129.886 394.932 128.652 390.165 126.253 386.486C123.792 382.712 120.25 379.794 116.967 376.703C103.007 363.564 93.2284 346.727 83.6495 330.147C80.0455 323.908 76.4415 317.67 72.8374 311.431C67.9983 303.055 62.9843 293.539 65.4419 284.19C65.7933 282.853 66.3493 281.481 67.4663 280.661C65.7314 282.625 67.0468 285.752 68.8288 287.674C70.6108 289.596 72.9373 291.367 73.311 293.956C77.3257 321.778 94.6224 345.642 111.386 368.253C90.6852 332.967 94.0524 287.536 110.806 250.23C119.921 229.934 133.665 210.466 153.871 201.017C158.371 198.912 163.102 197.347 167.819 195.788C174.337 193.633 180.854 191.478 187.372 189.323ZM447.902 386.349C448.466 386.481 449.129 386.736 449.234 387.318C449.322 387.809 448.95 388.253 448.594 388.595C446.765 390.348 444.583 391.714 442.223 392.582C441.479 392.856 441.501 394.051 442.09 394.589C442.68 395.127 443.539 395.186 444.329 395.219C473.553 396.413 502.776 397.608 532 398.803C531.716 400.312 529.758 400.617 528.254 400.574C500.566 399.786 472.886 398.737 445.217 397.429C442.353 397.293 438.471 395.936 439.027 393.064C439.555 390.339 443.424 390.306 445.51 388.521L433 386.746C437.829 385.338 443.008 385.2 447.902 386.349ZM278.245 390.264L278.41 390.378C279.201 390.924 280.385 390.796 281.041 390.094C280.204 389.547 279.01 389.619 278.245 390.264ZM269.099 6.47007C281.983 14.1814 290.425 27.8573 294.604 42.2424C295.209 44.3244 295.721 46.6246 294.825 48.5996C293.953 50.5212 291.153 51.6192 289.638 50.2156L289.514 50.0928C287.45 47.8823 284.582 52.0611 284.718 55.0776C285.413 70.5379 295.277 83.9397 299.866 98.7247C304.341 113.144 303.704 128.578 303.025 143.656C302.079 164.624 301.134 185.592 300.189 206.56C299.827 214.595 299.465 222.636 298.615 230.634C297.016 245.703 293.689 260.655 293.892 275.806C294.154 295.275 300.224 314.158 306.624 332.555C309.287 340.21 312.127 348.034 317.426 354.18C322.724 360.327 331.085 364.52 339 362.662C333.385 368.275 323.795 368.078 316.825 364.26C309.854 360.443 304.947 353.812 300.489 347.25C297.644 343.062 289.909 351.394 286.55 347.604C290.683 346.74 294.591 344.83 297.807 342.105C290.778 323.609 283.749 305.113 276.72 286.617C272.387 289.661 267.902 292.871 265.381 297.519C262.859 302.167 262.976 308.694 267.09 312.028C277.158 320.186 273.938 336.43 279.948 347.891C283.246 354.181 289.594 360.139 287.813 367.01C286.418 372.394 280.627 375.206 275.467 377.326C273.045 378.321 270.482 379.337 267.884 378.999C265.285 378.66 262.739 376.427 263.059 373.836C263.633 369.2 271.777 368.361 271.922 363.693C271.963 362.382 271.291 361.166 270.639 360.027C266.231 352.325 261.823 344.623 257.415 336.921C252.259 347.685 250.188 359.897 251.51 371.751C251.925 375.471 249.141 378.956 245.757 380.581C242.373 382.207 238.496 382.38 234.742 382.524C231.666 382.641 228.393 382.712 225.752 381.137C223.111 379.562 221.631 375.679 223.619 373.338C225.407 371.231 228.687 371.514 231.297 370.589C238.227 368.132 238.524 358.609 237.538 351.346L231.827 309.25C230.863 302.144 229.786 294.738 225.671 288.855C211.52 268.621 230.035 237.764 216.654 217.016C212.547 210.646 208.416 204.035 207.04 196.589C205.664 189.143 207.659 180.581 213.833 176.166C218.466 172.854 219.023 166.36 219.657 160.713C220.818 150.371 223.655 140.217 228.025 130.765C218.059 123.522 205.979 119.204 193.665 118.483C194.046 120.725 194.859 122.895 196.045 124.838C188.957 122.184 183.495 115.615 182.197 108.183C181.062 110.809 179.928 113.436 178.793 116.063C169.035 96.18 176.058 72.5599 183.202 51.6032C185.282 45.5012 187.362 39.3991 189.442 33.2971C191.944 25.9552 195.523 17.5734 203.064 15.6581C207.705 14.4794 213.961 18.9356 211.512 23.0368C205.425 21.5124 198.946 24.809 194.931 29.6151C190.917 34.4213 188.861 40.5105 186.888 46.4463C180.272 66.3577 173.585 87.5712 178.59 107.944C179.352 106.527 180.805 105.499 182.399 105.249C184.044 109.862 186.571 114.162 189.803 117.849C196.637 115.343 204.178 114.783 211.31 116.251C210.767 116.918 210.223 117.586 209.68 118.253C215.346 122.106 221.908 124.641 228.699 125.602C232.351 119.425 236.002 113.248 239.654 107.071L240.326 105.931C243.575 100.41 246.739 94.7039 247.756 88.4032C236.653 91.1774 225.287 92.9062 213.86 93.5589C208.879 93.8434 203.338 93.7306 199.668 90.3631C197.438 88.3169 196.281 85.3741 195.43 82.4752C192.355 72.0017 192.4 60.6395 195.56 50.1909C191.068 49.9235 189.804 43.2717 192.41 39.6172C195.016 35.9628 199.55 34.3292 203.328 31.8945C212.866 25.7478 217.716 14.3064 226.686 7.36207C238.555 -1.82644 256.214 -1.24121 269.099 6.47007ZM386.033 141.578C395.909 146.697 404.771 153.765 411.959 162.257C412.329 166.838 413.055 171.389 414.13 175.856C415.603 171.564 417.095 167.001 416.113 162.57C415.131 158.14 410.632 154.162 406.29 155.478C408.096 153.262 411.627 153.032 414.106 154.455C416.585 155.878 418.104 158.578 418.823 161.345C421.128 170.219 416.225 179.4 410.193 186.303C407.562 189.313 404.63 192.189 403.019 195.849C401.408 199.508 401.48 204.281 404.412 206.999C411.743 213.793 414.189 224.512 413.78 234.5C413.371 244.488 410.523 254.196 408.929 264.065C407.159 275.017 406.938 286.219 408.274 297.233C408.687 300.634 409.281 304.115 411.057 307.045C412.833 309.975 416.048 312.264 419.464 312.012C418.368 313.581 415.869 313.827 414.407 312.649L414.278 312.537L415.981 314.308C416.645 314.998 417.309 315.688 417.973 316.379C416.366 316.042 414.76 315.705 413.154 315.369C426.582 323.003 440.487 329.797 454.762 335.696C453.928 332.891 450.987 331.365 448.326 330.148C440.895 326.75 433.464 323.351 426.033 319.953C437.196 320.965 447.976 325.814 456.141 333.496C465.977 342.75 481.897 342.232 492.563 350.515C494.85 352.292 496.908 354.559 497.676 357.351C498.754 361.275 497.028 365.566 494.186 368.477C491.344 371.389 487.54 373.147 483.735 374.589C472.368 378.895 460.145 380.927 447.997 380.529C446.966 378.717 447.996 376.304 449.674 375.066C451.351 373.829 453.488 373.45 455.525 373.012C464.194 371.147 472.495 367.586 479.819 362.588C481.465 361.465 483.251 359.449 482.195 357.76C481.803 357.132 481.106 356.775 480.438 356.456C468.936 350.965 456.086 348.325 443.351 348.836L454.629 346.798C444.693 340.87 434.248 335.797 423.446 331.653C420.088 330.364 416 329.256 413.145 331.445C406.178 336.788 399.21 342.131 392.243 347.474C401.227 347.632 410.168 349.842 418.192 353.887C416.356 357.9 412.23 360.763 407.829 361.077C409.911 358.941 411.994 356.806 414.076 354.67C399.245 345.476 378.093 355.085 363.241 345.925C356.616 341.839 352.225 334.476 345.043 331.476C338.193 328.614 330.389 330.359 323.181 332.141C318.454 333.31 313.488 334.608 310 338.006C310.097 334.587 313.346 332.113 316.541 330.895C319.736 329.677 323.283 329.114 325.972 327.002C328.701 324.859 330.095 321.473 332.246 318.752C334.398 316.031 338.211 313.885 341.251 315.556C340.314 308.33 346.453 302.437 350.614 296.457C355.354 289.646 357.887 281.324 357.746 273.027C352.466 275.833 350.091 283.069 352.682 288.46C353.832 290.854 351.541 293.875 348.892 294.064C346.243 294.252 343.812 292.303 342.615 289.932C341.417 287.561 341.199 284.832 341.02 282.182C340.767 278.437 340.557 274.614 341.521 270.987C343.348 264.114 349.08 259.003 355.028 255.108C360.976 251.213 367.507 248.027 372.494 242.958C377.995 237.367 381.254 229.629 381.413 221.786C383.707 232.237 378.296 243.897 368.834 248.889C360.468 253.303 351.962 258.307 346.722 266.184C341.481 274.061 340.552 285.593 347.058 292.461C345.991 286.88 347.483 280.862 351.032 276.425C353.906 272.834 357.924 270.37 361.895 268.049C371.103 262.668 380.529 257.658 390.14 253.036C389.488 250.557 391.542 247.743 394.101 247.609C391.209 243.003 393.954 235.948 399.198 234.51C397.652 236.484 396.06 238.552 395.547 241.007C395.034 243.461 395.958 246.412 398.265 247.392C393.724 247.422 392.94 254.66 388.769 256.458C380.183 260.16 371.864 264.481 363.896 269.375C363.308 269.737 362.701 270.137 362.133 270.579C362.242 270.578 362.357 270.609 362.477 270.676C363.085 274.843 363.163 279.086 362.709 283.272C362.645 283.855 362.387 284.605 361.796 284.577C361.195 284.549 361.019 283.755 361.018 283.157L361 272.543C360.999 272.144 361.107 271.676 361.292 271.297C360.186 272.342 359.388 273.591 359.455 275.077C359.806 282.897 357.52 290.813 353.054 297.241C357.986 292.946 362.917 288.652 367.849 284.357C369.435 282.976 372.831 282.318 372.789 284.421C365.236 289.445 357.561 294.579 351.839 301.618C346.117 308.657 342.543 318.024 344.532 326.876C342.324 326.051 342.13 323.101 341.607 320.801C341.085 318.502 338.286 316.097 336.716 317.856C332.996 322.023 329.276 326.19 325.555 330.357C333.79 325.259 345.447 326.589 352.323 333.411C361.434 342.451 373.853 351.055 386.162 347.423C397.282 344.141 403.783 331.983 414.653 327.946C404.717 303.896 402.619 276.678 408.753 251.389C410.474 244.293 412.843 237.124 412.071 229.863C410.874 218.611 402.421 209.425 399.608 198.465C398.406 201.637 395.294 203.996 391.916 204.294C395.784 199.337 399.653 194.379 403.522 189.422C409.441 181.836 410.772 170.918 406.805 162.151C402.838 153.384 393.732 147.17 384.122 146.721C385.333 147.895 386.545 149.068 387.756 150.241C385.548 151.009 383.341 151.777 381.133 152.546C380.718 151.058 380.304 149.571 379.889 148.083C381.54 146.749 383.19 145.415 384.841 144.081C381.688 144.795 378.535 145.508 375.382 146.221C378.095 143.303 382.049 141.578 386.033 141.578ZM222.639 16.4196C213.375 23.0665 205.766 31.7034 198.245 40.2608C196.356 42.4805 199.918 45.2426 202.761 45.9068C215.53 48.8897 228.792 49.7668 241.844 48.4917C238.357 53.4183 231.251 54.0152 225.268 53.1186C219.284 52.2219 213.137 50.3215 207.318 51.9762C219.215 57.1559 231.947 60.426 244.875 61.6221L240.515 64.174C249.28 68.8886 251.973 80.6123 249.807 90.2995C247.642 99.9868 241.812 108.377 237.115 117.129C228.674 132.857 223.688 150.414 222.607 168.216C234.587 163.874 238.675 149.191 239.8 136.539C240.925 123.887 241.438 109.65 250.807 101.036C243.686 117.083 241.136 135.114 243.528 152.497C233.546 161.562 223.564 170.626 213.582 179.69C206.27 186.329 209.911 198.259 214.063 207.205C214.568 208.293 215.13 209.446 216.165 210.057C218.731 211.572 221.874 208.517 222.141 205.558C222.409 202.598 221.124 199.692 221.174 196.721C221.225 193.749 223.741 190.354 226.576 191.279C223.501 188.569 227.237 183.752 230.833 181.778C240.384 176.536 251.169 173.543 262.065 173.111C265.35 172.981 266.822 169.075 267.867 165.969C268.911 162.863 271.746 159.279 274.733 160.648C269.33 141.72 280.263 122.018 280.004 102.341C286.636 120.91 269.256 142.596 277.943 160.304C274.562 162.463 271.181 164.623 267.799 166.783C270.635 167.935 273.05 170.087 274.513 172.767C257.957 174.327 241.698 178.973 226.828 186.393C229.942 188.43 228.931 194.189 225.307 195.051C219.934 217.516 222.432 241.77 232.273 262.679C233.905 253.896 240.049 246.069 248.212 242.376C239.731 249.078 234.749 259.442 232.737 270.039C230.726 280.636 231.424 291.55 232.594 302.272C233.866 313.922 235.686 325.512 238.047 336.992C239.655 344.81 241.518 352.875 239.853 360.682C238.188 368.488 231.802 375.96 223.792 375.953C229.115 379.07 235.516 380.315 241.624 379.424C247.397 378.582 249.874 371.463 249.469 365.663C249.064 359.864 247.038 353.935 248.752 348.378C249.605 345.612 251.329 343.194 252.375 340.495C254.252 335.655 253.839 330.288 253.934 325.101C254.146 313.45 257.108 301.857 262.512 291.522C263.447 293.36 263.109 295.762 261.702 297.272C284.55 278.851 298.199 249.616 297.619 220.338L295.679 223.45C297.42 193.345 299.162 163.241 300.904 133.137C301.334 125.691 301.762 118.172 300.535 110.814C297.052 89.9163 280.506 71.4184 282.946 50.3741C278.066 48.7198 273.185 47.0655 268.304 45.4111C275.011 45.9433 281.717 46.4755 288.423 47.0077C289.521 47.0947 290.778 47.1248 291.539 46.3315C292.318 45.5186 292.203 44.2244 291.964 43.126C288.95 29.2883 275.486 20.654 263.19 13.5529C269.974 14.5716 276.36 18.0357 280.901 23.1591C276.756 12.8838 265.604 6.50579 254.508 5.85984C243.111 5.19634 231.904 9.77274 222.639 16.4196ZM471.043 370.217C466.035 374.267 459.176 374.821 452.833 375.935C451.744 376.126 450.431 376.559 450.254 377.651C451.41 378.368 452.863 378.34 454.221 378.262C465.362 377.619 476.392 375.1 486.708 370.843C486.128 369.51 484.209 369.681 482.811 370.077C481.765 370.373 480.718 370.669 479.672 370.966C478.48 371.303 477.176 371.636 476.034 371.154C474.892 370.673 474.24 368.98 475.173 368.164C473.601 367.95 472.277 369.219 471.043 370.217ZM259.868 306.807C257.799 313.809 256.866 321.254 258.143 328.441C260.012 338.952 266.364 348.022 272.052 357.069C273.797 359.846 275.563 363.009 274.902 366.219C274.186 369.698 270.904 371.959 267.889 373.851C272.889 376.264 278.578 372.619 282.917 369.163C283.575 368.638 284.279 368.039 284.423 367.212C284.555 366.453 284.177 365.709 283.81 365.03C279.627 357.283 275.444 349.536 271.262 341.789L271.166 336.341C271.111 333.174 271.051 329.973 270.276 326.901C268.425 319.567 262.756 313.801 259.868 306.807ZM145.456 369.941C145.813 370.266 146.002 370.753 146.372 371.063C146.939 371.541 147.756 371.482 148.486 371.579C149.216 371.676 150.06 372.159 149.997 372.905C147.924 374.038 145.173 373.715 143.408 372.132C142.872 371.58 142.863 370.589 143.388 370.027C143.914 369.465 144.887 369.424 145.456 369.941ZM445.007 365.59C445.481 365.67 446.094 365.946 445.988 366.416C445.935 366.651 445.712 366.8 445.505 366.92C443.046 368.351 440.255 369.203 437.418 369.387C436.39 369.453 435.516 370.111 434.725 370.789L434.545 370.945C433.707 371.675 432.801 372.449 431.698 372.568C430.595 372.686 429.328 371.776 429.539 370.684C429.725 369.717 430.832 369.283 431.777 369.016C433.486 368.533 435.196 368.05 436.906 367.567C437.135 367.265 437.219 366.858 437.128 366.489L424.818 366.67C424.349 366.677 423.851 366.676 423.453 366.426C423.056 366.177 422.839 365.581 423.144 365.224C430.395 364.254 437.792 364.378 445.007 365.59ZM415.268 320.447C413.975 322.228 414.761 324.889 416.391 326.367C418.021 327.845 420.245 328.435 422.377 328.977C424.403 329.492 426.428 330.007 428.453 330.521C429.003 330.661 429.636 330.786 430.096 330.454C430.376 330.25 430.43 329.814 430.3 329.52L430.28 329.483L431.387 330.127C447.892 339.657 465.286 347.646 483.27 353.955C486.09 354.944 486.73 358.966 485.239 361.556C483.749 364.147 480.92 365.615 478.232 366.922C477.172 367.438 476.273 369.289 477.449 369.379C480.831 367.744 484.734 367.207 488.431 367.868C491.809 368.472 495.113 365.461 495.596 362.063C496.08 358.665 494.284 355.257 491.73 352.964C489.177 350.672 485.945 349.302 482.754 348.041C462.94 340.214 441.857 334.898 423.967 323.33C421.808 321.933 418.569 320.599 417.04 322.667L415.268 320.447ZM307.407 352.921C311.298 358.119 316.846 362.067 323.044 364.047C324.934 364.651 326.956 365.078 328.896 364.663C328.86 363.716 327.652 363.377 326.715 363.214C323.185 362.601 319.877 360.78 317.478 358.128C316.273 356.796 315.275 355.249 313.831 354.178C312.022 352.838 309.596 352.386 307.407 352.921ZM178.607 345.586C180.366 345.685 179.328 349.043 180.817 349.987C181.411 350.364 182.179 350.185 182.871 350.06C186.973 349.322 191.429 351.208 193.762 354.671C194.348 355.54 193.778 356.811 192.861 357.314C191.943 357.818 190.83 357.759 189.791 357.638C188.169 357.449 187.04 359.195 186.478 360.732C185.916 362.27 185.255 364.099 183.672 364.504C182.459 364.814 181.224 364.105 180.271 363.29C179.319 362.475 178.437 361.497 177.249 361.103C176.06 360.708 174.445 361.234 174.244 362.473C174.026 363.816 172.188 363.995 170.841 363.831L166.03 363.248C165.739 361.92 167.623 361.25 168.967 361.428C170.312 361.605 172.027 361.875 172.715 360.703C173.071 360.097 172.984 359.281 173.424 358.732C174.149 357.824 175.591 358.315 176.607 358.875C177.695 359.475 178.782 360.074 179.87 360.674C180.866 361.223 181.942 361.79 183.073 361.675C184.204 361.561 185.295 360.427 184.917 359.352C184.435 357.979 185.892 356.659 187.301 356.309C188.711 355.959 190.271 356.082 191.522 355.343C189.059 352.199 184.174 351.298 180.757 353.358C179.73 353.977 178.777 352.378 178.784 351.178C178.792 349.977 178.734 348.355 177.56 348.118C176.666 347.938 175.951 348.797 175.308 349.446C174.666 350.095 173.444 350.54 172.961 349.765C173.571 347.296 176.074 345.443 178.607 345.586ZM219.444 353.009C221.119 353.631 222.938 354.376 223.74 355.914C224.542 357.453 223.389 359.857 221.621 359.552C221.341 359.169 221.329 358.624 221.591 358.231C221.807 357.907 222.199 357.651 222.21 357.267C222.221 356.875 221.829 356.597 221.479 356.392C219.653 355.319 217.826 354.246 216 353.173C216.761 352.239 218.291 352.581 219.444 353.009ZM282.19 356.822L282.199 357.169C282.227 357.826 282.662 358.45 283.27 358.705C283.706 357.949 283.065 356.832 282.19 356.822ZM157 351.776C155.555 353.286 153.613 354.213 151.619 354.342C152.156 354.965 152.594 355.689 152.912 356.472C151.569 356.978 150.308 355.581 149.456 354.337C149.126 353.854 148.796 353.159 149.157 352.704C149.3 352.524 149.518 352.442 149.726 352.372C152.07 351.583 154.575 351.378 157 351.776ZM291.48 264.3C287.835 270.935 283.525 277.206 278.635 282.99C277.734 284.056 278.341 285.662 278.959 286.912C288.553 306.309 292.974 327.962 302.987 347.146C303.85 348.799 304.917 350.571 306.7 351.132C308.483 351.693 310.86 350.021 310.163 348.292C299.34 321.455 289.686 293.168 291.48 264.3ZM156.595 330.715C157.062 331.041 157.059 331.756 157.026 332.349C156.813 336.14 157.523 339.985 159.068 343.407C159.587 344.558 161.268 344.186 162.152 343.324C163.036 342.462 163.763 341.234 164.944 341.021C166.194 340.796 167.379 341.914 167.772 343.199C168.166 344.483 167.97 345.878 167.77 347.212C167.649 348.024 167.476 348.926 166.843 349.396C166.21 349.866 165.051 349.368 165.23 348.568L165.936 345.41C166.027 345.001 166.116 344.553 165.945 344.174C165.654 343.529 164.776 343.467 164.174 343.784C163.572 344.101 163.123 344.672 162.556 345.057C160.743 346.29 158.188 345.225 156.919 343.375C155.651 341.524 155.337 339.143 155.063 336.87C153.948 340.675 153.585 344.728 154.005 348.689C153.441 349.275 152.647 348.262 152.477 347.442C151.38 342.175 152.196 336.483 154.718 331.805C155.118 331.064 155.923 330.248 156.595 330.715ZM190 339.545C187.333 340.616 185.096 342.688 183.849 345.242C183.571 345.81 182.593 345.604 182.335 345.028C182.076 344.452 182.314 343.783 182.609 343.224C183.376 341.771 184.54 340.523 185.947 339.648C184.298 339.526 182.649 339.403 181 339.281C183.356 336.905 187.792 337.035 190 339.545ZM169.324 335.598C170.524 335.778 171.439 336.714 172.201 337.636C171.436 337.71 170.702 338.047 170.155 338.573C171.104 339.566 172.052 340.56 173 341.554C170.405 341.808 167.754 340.046 167.049 337.599C166.72 336.459 168.123 335.419 169.324 335.598ZM450.961 239.613C458.973 264.419 463.329 290.369 463.852 316.397C468.883 311.954 475.4 309.174 482.13 308.601C478.593 309.843 476.325 313.286 475.069 316.774C473.813 320.262 473.3 323.991 471.858 327.408C482.894 324.028 494.973 324.043 506 327.449C496.545 330.147 487.617 334.628 479.841 340.578C478.489 339.826 479.667 337.803 480.911 336.886C485.929 333.186 491.502 330.216 497.392 328.105C488.023 326.263 478.158 326.933 469.134 330.026C470.79 324.421 472.205 318.748 473.376 313.026C466.921 316.027 461.022 320.189 456.059 325.245C454.769 324.09 456.644 322.281 457.974 321.172C461.551 318.19 461.699 312.892 461.463 308.281C460.55 290.429 458.167 272.55 452.704 255.506C453.216 274.718 449.27 294.033 441.253 311.551C440.881 312.365 439.605 313.177 439.324 312.328C439.573 311.358 439.822 310.388 440.071 309.418C437.722 306.431 436.609 302.525 437.038 298.768C432.842 303.729 429.194 309.141 426.179 314.876C424.851 315.22 424.734 312.994 425.385 311.801C428.936 305.297 433.426 299.292 438.679 294.025C439.251 298.627 439.824 303.229 440.396 307.831C449.639 286.825 452.796 263.255 449.402 240.603C449.52 239.928 450.289 239.44 450.961 239.613ZM184.536 329.8C185.079 330.125 185.198 331.037 184.607 331.277C183.649 331.666 183.806 332.96 184.038 333.915C184.27 334.87 184.092 336.251 183.05 336.308C182.145 336.358 181.69 335.293 181.64 334.443C181.589 333.594 181.564 332.561 180.77 332.15C178.275 333.626 175.779 335.102 173.283 336.578C172.563 335.779 173.347 334.582 174.168 333.875C176.55 331.826 179.507 330.371 182.658 329.7C183.286 329.567 183.993 329.475 184.536 329.8ZM408.943 325.825C409.162 326.19 408.688 326.871 408.539 326.439L408.535 326.397C408.279 326.386 408.042 326.09 408 325.727C408.317 325.565 408.724 325.459 408.943 325.825ZM68.1889 290.996C68.0152 293.72 68.0194 296.455 68.2015 299.178C68.3716 301.722 68.847 304.535 70.8674 306.101C71.5099 306.599 72.6545 306.81 72.9736 306.064C73.0515 305.881 73.0559 305.677 73.0574 305.479C73.0892 301.214 72.28 296.944 70.6895 292.984C70.2499 291.889 69.3063 290.607 68.1889 290.996ZM223.728 246.563L222.325 258.237C221.882 261.931 221.437 265.653 221.717 269.362C222.086 274.259 223.702 278.966 225.351 283.593C226.387 286.502 227.531 289.536 229.872 291.557C228.5 283.958 228.831 276.057 230.836 268.598C231.014 267.938 231.205 267.27 231.194 266.588C231.176 265.535 230.68 264.558 230.221 263.61C227.483 257.958 225.667 251.863 224.866 245.638C224.515 245.099 223.805 245.925 223.728 246.563ZM349.31 283.938C348.869 286.108 349.602 288.481 351.189 290.026C351.245 287.865 350.574 285.691 349.31 283.938ZM381 133.843C379.361 141.051 371.408 144.162 365.159 147.816C360.716 150.414 356.711 153.803 353.375 157.789C352.582 158.736 351.126 158.024 349.996 157.569C346.463 156.149 342.181 158.402 340.577 161.943C338.972 165.485 339.726 169.827 341.802 173.097C343.879 176.368 347.105 178.696 350.496 180.448C351.56 179.932 351.234 178.168 350.306 177.424C349.378 176.679 348.134 176.488 347.147 175.828C346.23 175.214 345.602 174.24 345.054 173.264C343.415 170.349 342.241 166.76 343.505 163.653C344.769 160.546 349.443 159.076 351.378 161.792C354.322 165.924 347.654 172.382 350.703 176.433C350.412 174.446 351.533 172.328 353.312 171.504C353.194 175.22 353.077 178.936 352.959 182.652C353.85 181.707 355.089 181.118 356.365 181.031C356.491 184.442 356.88 187.842 357.526 191.189C358.303 190.683 358.665 189.591 358.351 188.701L380.438 208.949C375.628 206.705 371.137 203.733 367.154 200.16C371.129 207.694 367.251 216.803 364.886 225.025C362.883 231.986 362.013 239.291 362.324 246.544C360.899 245.025 358.423 246.147 356.79 247.425C351.539 251.531 347.083 256.712 343.759 262.578C343.353 261.873 343.39 260.99 343.538 260.184C344.475 255.072 348.994 251.649 352.98 248.456C356.965 245.262 361.089 240.972 360.675 235.788C360.116 228.782 363.344 222.139 365.315 215.41C367.286 208.681 367.635 200.391 362.612 195.635C360.872 193.987 358.653 192.954 356.9 191.32C355.146 189.687 353.886 187.036 354.883 184.827C354.034 185.337 353.184 185.846 352.335 186.355C352.098 182.939 348.217 181.419 345.298 179.783C340.29 176.976 336.628 171.307 337.03 165.448C337.432 159.589 342.542 154.193 348.233 154.523C350.677 154.665 353.815 155.438 355.029 153.249C359.513 145.159 371.143 144.227 376.424 136.666C377.575 135.019 379.304 132.811 381 133.843ZM217.081 213.974L216.946 214.256C217.378 214.358 217.81 214.46 218.242 214.563C218.808 213.961 218.682 212.771 217.896 212.514C217.11 212.257 216.36 213.569 217.081 213.974ZM362.214 184.578C362.297 185.8 362.689 187.002 363.347 188.056C363.343 187.301 364.609 187.099 365.158 187.648C365.706 188.196 365.709 189.04 365.678 189.794C368.217 189.529 370.027 191.919 371.929 193.532C376.363 197.291 382.977 197.294 388.921 196.974C390.562 196.886 392.747 197.173 393 198.71C390.209 199.656 387.167 199.653 384.206 199.507C379.576 199.277 374.883 198.701 370.66 196.893C366.436 195.084 362.699 191.894 361.221 187.737C360.798 186.548 360.906 184.785 362.214 184.578ZM365.526 179.579C367.207 184.018 373.299 186.336 377.711 184.215C378.5 183.836 379.249 183.335 380.117 183.179C381.577 182.916 382.996 183.671 384.357 184.24C386.275 185.042 388.419 185.515 390.469 185.11C392.519 184.705 394.431 183.282 394.917 181.335C395.042 180.835 395.087 180.283 395.434 179.89C395.782 179.497 396.591 179.453 396.761 179.941C397.745 182.753 395.555 185.909 392.663 186.98C389.77 188.05 386.486 187.481 383.588 186.424C382.615 186.069 381.616 185.653 380.576 185.728C379.531 185.803 378.605 186.362 377.648 186.773C373.212 188.679 367.447 187.085 364.761 183.208C364.318 182.569 363.942 181.834 364.007 181.069C364.072 180.305 364.725 179.546 365.526 179.579ZM411.163 176.032C410.903 177.283 411.071 178.621 411.634 179.768C412.51 179.363 413.038 178.318 412.845 177.372L412.852 177.368C412.838 176.547 411.965 175.857 411.163 176.032ZM380.17 173.593C380.913 173.697 381.513 174.328 382.04 174.95C383.107 176.208 384.097 177.555 385 178.978C382.373 179.716 379.608 179.774 376.96 179.148C376.143 178.955 375.808 177.689 376.109 176.779C376.411 175.87 377.123 175.252 377.801 174.685C378.509 174.094 379.307 173.473 380.17 173.593ZM378.669 177.399L378.921 177.526L380.669 177.132C380.864 176.812 380.938 176.395 380.869 176.01C379.996 175.505 378.789 176.267 378.669 177.399ZM345.874 163.344C344.889 164.355 344.694 165.966 345.015 167.36C345.576 169.805 347.479 171.798 347.806 174.288C348.489 174.096 348.791 173.244 348.745 172.516C348.699 171.789 348.417 171.091 348.387 170.363C348.287 167.925 350.916 165.406 349.54 163.422C348.731 162.256 346.859 162.333 345.874 163.344ZM396.747 154.591C399.541 154.784 401.715 157.222 403.227 159.72C404.447 161.738 405.467 164.195 404.776 166.478C403.846 169.55 400.418 170.737 397.457 171.488L394.341 172.278C393.513 172.488 392.649 172.699 391.82 172.495C390.673 172.214 389.831 171.208 389.069 170.257C387.527 168.329 385.894 166.138 386.005 163.613C386.135 160.673 388.559 158.49 390.876 156.868C392.647 155.628 394.629 154.444 396.747 154.591ZM374.194 158.607C376.857 160.487 378.566 163.794 377.827 166.881C377.088 169.967 373.488 172.338 370.344 171.351C367.462 170.447 364.48 169.452 362.335 167.401C360.189 165.35 359.164 161.92 360.822 159.49C361.75 158.13 363.352 157.301 364.997 156.896C368.123 156.127 371.597 156.773 374.194 158.607ZM396.983 158.037C395.232 158.27 393.439 158.384 391.794 159.057C390.148 159.731 388.63 161.1 388.278 162.932C387.821 165.304 389.374 167.533 390.832 169.397C391.516 170.271 392.767 170.269 393.828 170.111C397.053 169.632 400.177 168.396 402.908 166.516C401.526 166.178 400.143 165.839 398.761 165.5C398.946 164.62 400.091 164.579 400.942 164.612C401.792 164.645 402.954 164.077 402.646 163.236C401.337 162.822 399.964 162.636 398.6 162.689C398.198 162.705 397.727 162.788 397.548 163.169C397.409 163.466 397.51 163.817 397.572 164.141C397.982 166.313 396.045 168.603 393.964 168.408C391.882 168.213 390.355 165.598 391.118 163.537C391.882 161.476 394.681 160.66 396.331 162.018C396.7 161.668 396.664 160.953 396.261 160.647C397.477 159.762 399.073 159.49 400.49 159.925C400.656 159.123 400.021 158.335 399.287 158.073C398.552 157.812 397.752 157.935 396.983 158.037ZM366.12 159.239C364.079 159.496 361.671 160.835 362.041 162.773C362.3 164.134 363.952 164.929 365.384 164.74C366.816 164.55 368.025 163.636 369.037 162.649L364.799 162.984C364.245 163.028 363.43 162.77 363.631 162.274C363.687 162.136 363.818 162.039 363.947 161.957C365.785 160.777 368.439 160.932 370.114 162.316C371.749 162.834 373.328 163.994 373.611 165.62C373.895 167.246 372.222 169.077 370.592 168.542C370.448 169.75 372.387 170.124 373.489 169.52C376.143 168.067 376.392 164.129 374.461 161.861C372.53 159.592 369.152 158.857 366.12 159.239ZM365.06 165.452C364.845 167.07 366.644 168.613 368.302 168.233C367.814 166.985 366.721 165.967 365.403 165.536L365.06 165.452ZM369.161 166.256L370.921 167.66L370.973 167.405C371.718 167.02 371.774 165.832 371.068 165.385C370.363 164.937 369.241 165.45 369.161 166.256ZM394.248 163.79C393.318 163.882 392.777 165.276 393.393 166.02L393.214 166.035C393.779 166.823 395.136 166.7 395.546 165.811C395.956 164.922 395.178 163.698 394.248 163.79ZM198.22 51.6812C197.072 53.1183 196.686 55.0035 196.418 56.8208C195.061 66.0236 195.851 75.5337 198.706 84.3896C199.221 85.9879 199.831 87.6121 200.979 88.8406C204.118 92.1992 209.546 91.2558 214.086 90.4851C218.311 89.7679 222.602 89.434 226.887 89.4889C228.874 89.5143 230.831 89.0625 232.766 88.6133C237.878 87.4263 242.991 86.2393 248.104 85.0522C248.168 78.2493 245.414 71.4623 240.623 66.615C239.903 65.8874 238.781 65.166 237.943 65.7551C238.865 66.6857 238.592 68.483 237.434 69.0989C236.055 68.5962 236.546 66.56 236.16 65.1493C235.664 63.3343 233.56 62.5455 231.722 62.1168C222.286 59.9165 211.313 59.5414 205.043 52.1792C204.46 51.494 203.909 50.7405 203.118 50.3091C201.501 49.4274 199.368 50.2442 198.22 51.6812ZM266.045 23.6525C271.512 26.205 276.368 30.1795 280.058 35.1201C280.557 35.7876 281.058 36.5547 280.994 37.4C280.878 38.9358 279.116 39.5999 277.676 39.9058C275.127 40.4473 272.578 40.9889 270.028 41.5305C269.096 41.7285 267.629 41.302 268.01 40.3883C271.08 38.421 274.763 37.5254 278.346 37.8747C278.632 37.2529 278.289 36.5218 277.91 35.9573C276.657 34.0926 274.942 32.6348 273.249 31.2026C270.499 28.8758 267.75 26.549 265 24.2222C265.058 23.7427 265.638 23.4268 266.045 23.6525ZM245.961 16.1002C248.362 17.2081 249.231 20.08 249.667 22.6425C249.938 24.2345 250.142 25.8647 249.875 27.4573C249.408 30.2448 247.489 32.6788 245.055 34.1974C242.62 35.716 239.714 36.389 236.831 36.5434C230.154 36.901 223.368 34.4813 218.492 30.0041C216.37 28.0554 216.656 24.4704 218.44 22.2203C220.224 19.9702 223.079 18.8073 225.886 18.0518C229.063 17.1962 232.337 16.7411 235.6 16.2882C237.84 15.9772 240.086 15.6657 242.347 15.5903C243.575 15.5493 244.849 15.5874 245.961 16.1002ZM219.325 25.1623C218.589 26.4437 219.801 27.9298 220.913 28.9179C223.091 30.8535 225.821 32.934 228.664 32.1921C230.57 31.6947 232.617 29.9994 234.207 31.1419C234.073 31.7583 233.349 32.0553 232.711 32.1356C232.072 32.216 231.375 32.1958 230.853 32.5652C230.332 32.9346 230.255 33.9076 230.873 34.0848C232.89 34.6628 234.769 32.9641 236.204 31.4619C237.639 29.9597 239.698 28.376 241.623 29.2008C241.879 29.3103 242.144 29.5062 242.148 29.7791C242.152 30.1773 241.645 30.3477 241.248 30.4348C239.13 30.8995 237.236 32.2672 236.159 34.1104C238.979 33.7075 241.508 32.2476 243.955 30.8173C245.686 29.8057 247.586 28.5627 247.936 26.6203C245.518 27.3193 243.003 27.698 240.482 27.7428C235.206 27.8366 230.076 31.0151 224.933 29.8625C223.632 29.571 222.736 28.4385 221.953 27.3812C222.765 26.6196 224.065 27.2475 225.125 27.6141C226.186 27.9807 227.889 27.4199 227.494 26.3894C226.249 25.871 225.004 25.3526 223.759 24.8342C222.258 24.2087 220.124 23.7699 219.325 25.1623ZM231.17 25.6591C230.801 25.7094 230.392 25.8068 230.196 26.1171C229.914 26.5658 230.298 27.1857 230.807 27.3569C231.317 27.5282 231.874 27.3902 232.394 27.2515C233.678 26.9089 234.961 26.5664 236.245 26.2238C234.637 25.6231 232.874 25.4269 231.17 25.6591ZM242.919 23.4521C240.951 24.1761 238.897 24.9563 237.516 26.5082C240.595 25.9847 243.73 25.7715 246.854 25.8729C247.96 25.3911 247.547 23.5661 246.437 23.0928C245.327 22.6196 244.053 23.0353 242.919 23.4521ZM244.495 19.1164C243.401 19.2033 242.426 19.7902 241.404 20.181C238.5 21.2912 235.258 20.809 232.145 20.6448C229.411 20.5005 226.653 20.6175 223.968 21.1457C222.525 21.4297 220.837 22.1171 220.656 23.5465C223.116 22.4161 225.982 22.8196 228.692 23.0154C234.829 23.4586 241.055 22.6936 246.889 20.7794C246.866 19.7059 245.589 19.0296 244.495 19.1164ZM201.219 19.4653C200.492 19.7861 199.744 20.2308 199.454 20.9681C199.164 21.7054 199.637 22.7452 200.431 22.7233C202.839 21.0442 205.883 20.2942 208.8 20.661C209.723 20.7773 210.667 20.0288 210.76 19.1058C207.688 18.0175 204.2 18.1489 201.219 19.4653ZM233.003 6.86512L233.011 6.97315C232.103 6.65047 230.984 7.14891 230.62 8.03807C232.117 7.93403 233.598 7.61274 235.003 7.08748C234.998 6.26459 233.699 6.42124 233.003 6.86512ZM252.151 3.56787C251.541 3.84504 252.257 4.9829 252.774 4.55631L252.788 4.60375C253.25 4.23524 252.691 3.32519 252.151 3.56787Z" fill="#00160A"/>
</svg>
